<svg width="48" height="48" viewBox="0 0 48 48" fill="none" xmlns="http://www.w3.org/2000/svg">
<rect width="48" height="48" rx="12" fill="#FF2442"/>
<path d="M19.1442 23.9193C19.1442 21.2833 21.2799 19.1459 23.9152 19.1459C26.5504 19.1459 28.6872 21.2833 28.6872 23.9193C28.6872 26.5553 26.5504 28.6928 23.9152 28.6928C21.2799 28.6928 19.1442 26.5553 19.1442 23.9193ZM16.5646 23.9193C16.5646 27.9802 19.8554 31.272 23.9152 31.272C27.9749 31.272 31.2658 27.9802 31.2658 23.9193C31.2658 19.8584 27.9749 16.5666 23.9152 16.5666C19.8554 16.5666 16.5646 19.8584 16.5646 23.9193ZM29.839 16.275C29.8388 16.6149 29.9395 16.9471 30.1281 17.2298C30.3167 17.5124 30.5849 17.7328 30.8988 17.863C31.2126 17.9931 31.558 18.0273 31.8912 17.9611C32.2245 17.895 32.5306 17.7314 32.771 17.4912C33.0113 17.251 33.175 16.9449 33.2415 16.6116C33.3079 16.2783 33.274 15.9328 33.1441 15.6188C33.0142 15.3047 32.7941 15.0363 32.5117 14.8474C32.2293 14.6585 31.8972 14.5575 31.5575 14.5574H31.5568C31.1014 14.5576 30.6647 14.7386 30.3426 15.0607C30.0205 15.3827 29.8394 15.8195 29.839 16.275ZM18.1319 35.5748C16.7362 35.5112 15.9776 35.2787 15.4735 35.0822C14.8052 34.822 14.3283 34.512 13.8269 34.0111C13.3256 33.5103 13.0152 33.0338 12.7562 32.3652C12.5597 31.8612 12.3272 31.1022 12.2637 29.7061C12.1943 28.1967 12.1805 27.7433 12.1805 23.9194C12.1805 20.0955 12.1955 19.6434 12.2637 18.1327C12.3273 16.7367 12.5615 15.9791 12.7562 15.4736C13.0164 14.8051 13.3263 14.3281 13.8269 13.8266C14.3276 13.325 14.804 13.0146 15.4735 12.7555C15.9774 12.5589 16.7362 12.3264 18.1319 12.2629C19.6408 12.1935 20.0941 12.1796 23.9152 12.1796C27.7363 12.1796 28.19 12.1946 29.7002 12.2629C31.0958 12.3265 31.8532 12.5607 32.3585 12.7555C33.0269 13.0146 33.5038 13.3257 34.0051 13.8266C34.5065 14.3274 34.8157 14.8051 35.0759 15.4736C35.2724 15.9776 35.5049 16.7367 35.5683 18.1327C35.6377 19.6434 35.6516 20.0955 35.6516 23.9194C35.6516 27.7433 35.6377 28.1955 35.5683 29.7061C35.5048 31.1022 35.2712 31.861 35.0759 32.3652C34.8157 33.0338 34.5058 33.5108 34.0051 34.0111C33.5044 34.5115 33.0269 34.822 32.3585 35.0822C31.8547 35.2788 31.0958 35.5113 29.7002 35.5748C28.1913 35.6442 27.738 35.6581 23.9152 35.6581C20.0924 35.6581 19.6403 35.6442 18.1319 35.5748ZM18.0134 9.68681C16.4894 9.75623 15.4481 9.99794 14.5387 10.3519C13.5969 10.7175 12.7996 11.2079 12.0029 12.0035C11.2061 12.7992 10.7171 13.598 10.3517 14.5401C9.99783 15.4504 9.75619 16.4914 9.68679 18.0158C9.61625 19.5426 9.6001 20.0307 9.6001 23.9193C9.6001 27.8079 9.61625 28.2961 9.68679 29.8228C9.75619 31.3473 9.99783 32.3883 10.3517 33.2985C10.7171 34.24 11.2062 35.0397 12.0029 35.8351C12.7995 36.6304 13.5969 37.1201 14.5387 37.4867C15.4498 37.8407 16.4894 38.0824 18.0134 38.1518C19.5405 38.2212 20.0277 38.2385 23.9152 38.2385C27.8027 38.2385 28.2907 38.2224 29.817 38.1518C31.341 38.0824 32.3817 37.8407 33.2917 37.4867C34.2329 37.1201 35.0308 36.6308 35.8275 35.8351C36.6242 35.0394 37.1122 34.24 37.4787 33.2985C37.8325 32.3883 38.0753 31.3472 38.1436 29.8228C38.213 28.2949 38.2291 27.8079 38.2291 23.9193C38.2291 20.0307 38.213 19.5426 38.1436 18.0158C38.0742 16.4913 37.8325 15.4498 37.4787 14.5401C37.1122 13.5986 36.623 12.8005 35.8275 12.0035C35.032 11.2066 34.2329 10.7175 33.2928 10.3519C32.3817 9.99794 31.3409 9.75509 29.8181 9.68681C28.2918 9.6174 27.8038 9.6001 23.9163 9.6001C20.0288 9.6001 19.5405 9.61625 18.0134 9.68681Z" fill="white"/>
<path d="M19.1442 23.9193C19.1442 21.2833 21.2799 19.1459 23.9152 19.1459C26.5504 19.1459 28.6872 21.2833 28.6872 23.9193C28.6872 26.5553 26.5504 28.6928 23.9152 28.6928C21.2799 28.6928 19.1442 26.5553 19.1442 23.9193ZM16.5646 23.9193C16.5646 27.9802 19.8554 31.272 23.9152 31.272C27.9749 31.272 31.2658 27.9802 31.2658 23.9193C31.2658 19.8584 27.9749 16.5666 23.9152 16.5666C19.8554 16.5666 16.5646 19.8584 16.5646 23.9193ZM29.839 16.275C29.8388 16.6149 29.9395 16.9471 30.1281 17.2298C30.3167 17.5124 30.5849 17.7328 30.8988 17.863C31.2126 17.9931 31.558 18.0273 31.8912 17.9611C32.2245 17.895 32.5306 17.7314 32.771 17.4912C33.0113 17.251 33.175 16.9449 33.2415 16.6116C33.3079 16.2783 33.274 15.9328 33.1441 15.6188C33.0142 15.3047 32.7941 15.0363 32.5117 14.8474C32.2293 14.6585 31.8972 14.5575 31.5575 14.5574H31.5568C31.1014 14.5576 30.6647 14.7386 30.3426 15.0607C30.0205 15.3827 29.8394 15.8195 29.839 16.275ZM18.1319 35.5748C16.7362 35.5112 15.9776 35.2787 15.4735 35.0822C14.8052 34.822 14.3283 34.512 13.8269 34.0111C13.3256 33.5103 13.0152 33.0338 12.7562 32.3652C12.5597 31.8612 12.3272 31.1022 12.2637 29.7061C12.1943 28.1967 12.1805 27.7433 12.1805 23.9194C12.1805 20.0955 12.1955 19.6434 12.2637 18.1327C12.3273 16.7367 12.5615 15.9791 12.7562 15.4736C13.0164 14.8051 13.3263 14.3281 13.8269 13.8266C14.3276 13.325 14.804 13.0146 15.4735 12.7555C15.9774 12.5589 16.7362 12.3264 18.1319 12.2629C19.6408 12.1935 20.0941 12.1796 23.9152 12.1796C27.7363 12.1796 28.19 12.1946 29.7002 12.2629C31.0958 12.3265 31.8532 12.5607 32.3585 12.7555C33.0269 13.0146 33.5038 13.3257 34.0051 13.8266C34.5065 14.3274 34.8157 14.8051 35.0759 15.4736C35.2724 15.9776 35.5049 16.7367 35.5683 18.1327C35.6377 19.6434 35.6516 20.0955 35.6516 23.9194C35.6516 27.7433 35.6377 28.1955 35.5683 29.7061C35.5048 31.1022 35.2712 31.861 35.0759 32.3652C34.8157 33.0338 34.5058 33.5108 34.0051 34.0111C33.5044 34.5115 33.0269 34.822 32.3585 35.0822C31.8547 35.2788 31.0958 35.5113 29.7002 35.5748C28.1913 35.6442 27.738 35.6581 23.9152 35.6581C20.0924 35.6581 19.6403 35.6442 18.1319 35.5748ZM18.0134 9.68681C16.4894 9.75623 15.4481 9.99794 14.5387 10.3519C13.5969 10.7175 12.7996 11.2079 12.0029 12.0035C11.2061 12.7992 10.7171 13.598 10.3517 14.5401C9.99783 15.4504 9.75619 16.4914 9.68679 18.0158C9.61625 19.5426 9.6001 20.0307 9.6001 23.9193C9.6001 27.8079 9.61625 28.2961 9.68679 29.8228C9.75619 31.3473 9.99783 32.3883 10.3517 33.2985C10.7171 34.24 11.2062 35.0397 12.0029 35.8351C12.7995 36.6304 13.5969 37.1201 14.5387 37.4867C15.4498 37.8407 16.4894 38.0824 18.0134 38.1518C19.5405 38.2212 20.0277 38.2385 23.9152 38.2385C27.8027 38.2385 28.2907 38.2224 29.817 38.1518C31.341 38.0824 32.3817 37.8407 33.2917 37.4867C34.2329 37.1201 35.0308 36.6308 35.8275 35.8351C36.6242 35.0394 37.1122 34.24 37.4787 33.2985C37.8325 32.3883 38.0753 31.3472 38.1436 29.8228C38.213 28.2949 38.2291 27.8079 38.2291 23.9193C38.2291 20.0307 38.213 19.5426 38.1436 18.0158C38.0742 16.4913 37.8325 15.4498 37.4787 14.5401C37.1122 13.5986 36.623 12.8005 35.8275 12.0035C35.032 11.2066 34.2329 10.7175 33.2928 10.3519C32.3817 9.99794 31.3409 9.75509 29.8181 9.68681C28.2918 9.6174 27.8038 9.6001 23.9163 9.6001C20.0288 9.6001 19.5405 9.61625 18.0134 9.68681Z" fill="white"/>
</svg>
