<svg width="48" height="48" viewBox="0 0 48 48" fill="none" xmlns="http://www.w3.org/2000/svg">
<rect width="48" height="48" rx="12" fill="#FF2442"/>
<path d="M8.86133 38.4002L11.0884 30.1334C9.29232 26.913 8.72169 23.1552 9.48122 19.5494C10.2407 15.9436 12.2795 12.7317 15.2233 10.5031C18.1672 8.27449 21.8187 7.1787 25.5077 7.41678C29.1968 7.65486 32.676 9.21084 35.3069 11.7992C37.9378 14.3876 39.5439 17.8347 39.8305 21.508C40.1171 25.1813 39.0649 28.8345 36.8671 31.797C34.6693 34.7596 31.4733 36.8329 27.8655 37.6365C24.2577 38.4401 20.4802 37.92 17.226 36.1718L8.86133 38.4002ZM17.6294 33.0783L18.1467 33.3842C20.5037 34.7765 23.2567 35.3527 25.9766 35.0229C28.6965 34.6932 31.2305 33.4759 33.1838 31.5609C35.1371 29.6459 36.4 27.1406 36.7755 24.4356C37.1511 21.7306 36.6183 18.9778 35.2602 16.6061C33.902 14.2344 31.7948 12.377 29.267 11.3235C26.7391 10.27 23.9326 10.0795 21.2848 10.7816C18.637 11.4838 16.2965 13.0392 14.6283 15.2055C12.96 17.3717 12.0576 20.0271 12.0617 22.7579C12.0594 25.0222 12.6878 27.2426 13.8766 29.1721L14.2011 29.7052L12.956 34.3192L17.6294 33.0783Z" fill="white"/>
<path fill-rule="evenodd" clip-rule="evenodd" d="M30.0962 25.0488C29.81 24.8131 29.4749 24.6471 29.1164 24.5637C28.7579 24.4802 28.3855 24.4814 28.0275 24.5671C27.4896 24.7953 27.1421 25.6573 26.7945 26.0883C26.7213 26.1917 26.6136 26.2641 26.4917 26.2921C26.3698 26.3201 26.2421 26.3018 26.1326 26.2405C24.1634 25.4528 22.5129 24.0083 21.449 22.1416C21.3583 22.0252 21.3153 21.8773 21.3292 21.7291C21.3431 21.5809 21.4128 21.444 21.5235 21.3472C21.9111 20.9553 22.1957 20.4699 22.351 19.9359C22.3854 19.3468 22.2533 18.7601 21.9703 18.2456C21.7516 17.5244 21.3352 16.8821 20.7705 16.3948C20.4792 16.261 20.1563 16.2162 19.8406 16.2657C19.5249 16.3151 19.23 16.4569 18.9914 16.6737C18.5772 17.0387 18.2485 17.4939 18.0294 18.0058C17.8102 18.5177 17.7064 19.0733 17.7253 19.6316C17.7266 19.9452 17.7655 20.2574 17.8412 20.5613C18.0333 21.2914 18.3288 21.9889 18.7183 22.6318C18.9993 23.1243 19.3059 23.601 19.6368 24.0601C20.7122 25.5677 22.0639 26.8478 23.617 27.8293C24.3964 28.328 25.2293 28.7335 26.0995 29.0378C27.0033 29.4563 28.0013 29.6169 28.9874 29.5026C29.5492 29.4158 30.0815 29.1892 30.5375 28.8429C30.9935 28.4966 31.3591 28.0411 31.6022 27.5166C31.7451 27.1997 31.7884 26.8455 31.7263 26.5024C31.5774 25.801 30.6589 25.3869 30.0962 25.0488Z" fill="white"/>
</svg>
