<svg width="48" height="48" viewBox="0 0 48 48" fill="none" xmlns="http://www.w3.org/2000/svg">
<g clip-path="url(#clip0_188_257)">
<rect width="48" height="48" rx="12" fill="#FF2442"/>
<path d="M29.0201 14.7464L29.8103 15.3097V14.3393V14.2869H30.5096V21.0475L30.0382 21.0475L30.0374 21.0475C29.9731 21.0476 29.914 21.0227 29.8724 20.9826C29.8312 20.9428 29.8106 20.8917 29.8103 20.8414L29.8052 19.8774L29.0201 20.4369C28.3964 20.8815 27.6416 21.1224 26.8663 21.1211H26.8655C25.8954 21.1211 24.9676 20.7461 24.2855 20.0828C23.6039 19.42 23.2232 18.5239 23.2226 17.5923C23.2232 16.6607 23.6039 15.7646 24.2855 15.1018C24.9676 14.4384 25.8954 14.0635 26.8655 14.0635L26.8662 14.0635C27.6417 14.0624 28.3972 14.3024 29.0201 14.7464ZM19.6823 12.5602H14.2959V11.7925H21.7735C21.7518 12.0608 21.684 12.2795 21.5111 12.5341L21.4971 12.5496C21.4968 12.5499 21.4966 12.5501 21.4963 12.5504C21.3868 12.6702 21.2801 12.7925 21.1763 12.9171L21.1763 12.9171L21.1738 12.9202L15.7202 19.5809L15.0515 20.3976H16.1071H21.7823V20.8404C21.7823 20.8657 21.7772 20.8911 21.7669 20.9152C21.7566 20.9394 21.7411 20.9623 21.7206 20.9822C21.7001 21.0021 21.6751 21.0186 21.6465 21.03C21.618 21.0415 21.5869 21.0475 21.5552 21.0475H21.5544H14.0543C14.0586 20.8519 14.0855 20.7286 14.1165 20.641C14.1489 20.5494 14.194 20.4726 14.2675 20.3663L20.067 13.3795L20.7471 12.5602H19.6823ZM33.0697 21.0475C33.0374 21.0475 33.009 21.0348 32.9902 21.0165C32.9719 20.9987 32.9642 20.9774 32.9642 20.9582V11.7925H33.782V21.0475H33.0697ZM39.6589 14.0144C40.1428 14.0142 40.6217 14.1068 41.0681 14.2866C41.5145 14.4664 41.9192 14.7296 42.2596 15.0606C42.5999 15.3915 42.8692 15.7838 43.0527 16.2144C43.2362 16.6451 43.3305 17.1062 43.3306 17.5716C43.3308 18.0369 43.2367 18.4981 43.0535 18.9289C42.8703 19.3597 42.6013 19.752 42.2612 20.0832C41.921 20.4144 41.5164 20.6778 41.0701 20.8579C40.6238 21.0379 40.145 21.1308 39.6611 21.1309C38.6832 21.1312 37.748 20.7534 37.0604 20.0847C36.3732 19.4165 35.9896 18.513 35.9893 17.5737C35.989 16.6345 36.3721 15.7307 37.0588 15.0621C37.746 14.393 38.681 14.0146 39.6589 14.0144ZM26.8557 20.4626C27.245 20.4712 27.6325 20.404 27.9955 20.2648C28.3584 20.1255 28.6901 19.9167 28.9705 19.6499C29.2509 19.3832 29.4746 19.0638 29.6275 18.7102C29.7805 18.3566 29.8595 17.9762 29.8595 17.5917C29.8595 17.2071 29.7805 16.8268 29.6275 16.4731C29.4746 16.1195 29.2509 15.8002 28.9705 15.5334C28.6901 15.2667 28.3584 15.0579 27.9955 14.9186C27.6325 14.7793 27.245 14.7122 26.8557 14.7208C26.0926 14.7377 25.364 15.0444 24.8265 15.5795C24.2885 16.115 23.9849 16.837 23.9849 17.5917C23.9849 18.3464 24.2885 19.0683 24.8265 19.6038C25.364 20.1389 26.0926 20.4457 26.8557 20.4626ZM39.6587 20.459C40.4378 20.459 41.1875 20.158 41.7424 19.6181C42.2978 19.0776 42.6124 18.3417 42.6124 17.5714C42.6124 16.8011 42.2978 16.0652 41.7424 15.5248C41.1875 14.9848 40.4378 14.6838 39.6587 14.6838C38.8797 14.6838 38.1299 14.9848 37.575 15.5248C37.0196 16.0652 36.705 16.8011 36.705 17.5714C36.705 18.3417 37.0196 19.0776 37.575 19.6181C38.1299 20.158 38.8797 20.459 39.6587 20.459Z" fill="white" stroke="white"/>
<path d="M28.5 36.1739C40.9264 36.1739 51 27.1807 51 16.087C51 4.99324 40.9264 -4 28.5 -4C16.0736 -4 6 4.99324 6 16.087C6 21.6951 8.57435 26.7665 12.7256 30.4105C13.1998 30.8268 13.4939 31.4276 13.4145 32.0535C13.1399 34.2183 12.2171 36.1875 10.8395 37.7711C11.2295 37.8391 11.625 37.8923 12.0242 37.9302C12.5094 37.9764 13.002 38 13.5 38C16.705 38 19.6754 37.0209 22.1129 35.3531C24.1377 35.8872 26.2813 36.1739 28.5 36.1739Z" stroke="white" stroke-width="2.5" stroke-linecap="round" stroke-linejoin="round"/>
</g>
<defs>
<clipPath id="clip0_188_257">
<rect width="48" height="48" rx="12" fill="white"/>
</clipPath>
</defs>
</svg>
