     <svg width="71" height="39" viewBox="0 0 71 39" fill="currentColor" xmlns="http://www.w3.org/2000/svg">
        <path d="M11.9613 22.22V35H9.92734V29.366H3.48334V35H1.46734V22.22H3.48334V27.566H9.92734V22.22H11.9613ZM18.5343 22.22H20.4423L25.4103 35H23.2863L21.9363 31.526H17.0043L15.6723 35H13.5303L18.5343 22.22ZM21.5403 30.032L19.4883 24.434L17.3643 30.032H21.5403ZM37.0348 31.706C37.0348 32.39 36.8548 32.978 36.4948 33.47C36.1468 33.962 35.6728 34.34 35.0728 34.604C34.4728 34.868 33.8128 35 33.0928 35H26.9908V22.22H33.5788C34.1788 22.22 34.6948 22.382 35.1268 22.706C35.5708 23.018 35.9068 23.426 36.1348 23.93C36.3748 24.422 36.4948 24.938 36.4948 25.478C36.4948 26.102 36.3328 26.69 36.0088 27.242C35.6968 27.782 35.2468 28.184 34.6588 28.448C35.3908 28.664 35.9668 29.06 36.3868 29.636C36.8188 30.2 37.0348 30.89 37.0348 31.706ZM34.9648 31.328C34.9648 30.968 34.8868 30.644 34.7308 30.356C34.5868 30.056 34.3828 29.816 34.1188 29.636C33.8668 29.444 33.5668 29.348 33.2188 29.348H29.0068V33.254H33.0928C33.4528 33.254 33.7708 33.17 34.0468 33.002C34.3348 32.822 34.5568 32.588 34.7128 32.3C34.8808 32 34.9648 31.676 34.9648 31.328ZM29.0068 23.966V27.728H32.7148C33.0508 27.728 33.3508 27.65 33.6148 27.494C33.8788 27.326 34.0888 27.104 34.2448 26.828C34.4008 26.54 34.4788 26.216 34.4788 25.856C34.4788 25.484 34.4068 25.16 34.2628 24.884C34.1188 24.596 33.9208 24.374 33.6688 24.218C33.4288 24.05 33.1468 23.966 32.8228 23.966H29.0068ZM47.9033 33.218V35H39.1373V22.22H47.7413V24.002H41.1533V27.638H46.8593V29.312H41.1533V33.218H47.9033ZM49.983 35V22.22H55.347C55.923 22.22 56.451 22.34 56.931 22.58C57.411 22.82 57.831 23.138 58.191 23.534C58.551 23.93 58.827 24.374 59.019 24.866C59.211 25.358 59.307 25.862 59.307 26.378C59.307 27.086 59.145 27.764 58.821 28.412C58.509 29.048 58.059 29.564 57.471 29.96C56.895 30.356 56.223 30.554 55.455 30.554H51.999V35H49.983ZM51.999 28.772H55.329C55.713 28.772 56.049 28.67 56.337 28.466C56.625 28.25 56.847 27.962 57.003 27.602C57.171 27.242 57.255 26.834 57.255 26.378C57.255 25.91 57.159 25.496 56.967 25.136C56.775 24.776 56.523 24.5 56.211 24.308C55.911 24.104 55.581 24.002 55.221 24.002H51.999V28.772ZM61.6914 22.22L65.2194 27.242L68.7474 22.22H70.9794L66.3714 28.7L70.8354 35H68.6034L65.2194 30.158L61.8354 35H59.5854L64.0494 28.7L59.4414 22.22H61.6914Z" fill="currentColor" fill-opacity="1"/>
        <path d="M57.3901 9.48597C57.7598 9.64261 58 10.0052 58 10.4067V13.242C58 13.6009 57.6331 13.8429 57.3032 13.7016L35 4.15036L14.7123 13.6659C14.3808 13.8214 14 13.5794 14 13.2132V10.3828C14 9.99345 14.2259 9.63953 14.5791 9.47566L34.5975 0.186755C34.8538 0.0678411 35.1484 0.0628755 35.4085 0.173085L57.3901 9.48597Z" fill="currentColor" fill-opacity="1"/>
      </svg>