<svg width="222" height="80" viewBox="0 0 222 80" fill="none" xmlns="http://www.w3.org/2000/svg">
<rect x="0.524902" y="27.7758" width="215.473" height="52.2244" rx="26.1122" transform="rotate(-7.37806 0.524902 27.7758)" fill="white"/>
<path d="M42.6263 54.4577C42.7894 55.6627 42.6124 56.7415 42.0955 57.6941C41.5997 58.6438 40.8548 59.4227 39.8607 60.0308C38.8666 60.639 37.7353 61.0288 36.4668 61.2005L25.7168 62.6551L22.6703 40.1403L34.2765 38.5698C35.3335 38.4268 36.2812 38.5892 37.1195 39.057C37.9761 39.5008 38.6653 40.1395 39.1871 40.9731C39.7272 41.7826 40.0616 42.6631 40.1903 43.6144C40.3391 44.7137 40.1939 45.7882 39.7547 46.8379C39.3337 47.8636 38.6368 48.6791 37.6638 49.2844C39.0049 49.4904 40.114 50.0507 40.9913 50.9654C41.8868 51.856 42.4318 53.0201 42.6263 54.4577ZM38.8894 54.2852C38.8036 53.651 38.589 53.0988 38.2455 52.6286C37.9203 52.1344 37.5037 51.7602 36.9957 51.506C36.506 51.2278 35.9546 51.1302 35.3415 51.2132L27.9211 52.2173L28.8522 59.0985L36.0506 58.1245C36.6848 58.0387 37.225 57.8149 37.6712 57.4531C38.1357 57.0674 38.471 56.6022 38.6772 56.0577C38.9017 55.4891 38.9724 54.8983 38.8894 54.2852ZM26.6381 42.7357L27.5349 49.3633L34.0674 48.4793C34.6593 48.3992 35.1693 48.1903 35.5972 47.8526C36.0222 47.4937 36.3393 47.0525 36.5483 46.5291C36.7545 45.9845 36.8146 45.3951 36.7288 44.7609C36.6401 44.1055 36.4361 43.5519 36.1166 43.1C35.7942 42.6269 35.3925 42.283 34.9114 42.0683C34.4485 41.8295 33.9317 41.7488 33.3609 41.826L26.6381 42.7357ZM70.3914 33.683L73.4379 56.1979L69.8546 56.6827L68.5115 46.7572L57.159 48.2933L58.502 58.2189L54.9504 58.6994L51.9039 36.1846L55.4555 35.704L56.7299 45.1222L68.0824 43.5861L66.808 34.1679L70.3914 33.683ZM77.8827 55.5964L82.342 45.5962C80.8049 45.3736 79.5455 44.7367 78.5637 43.6855C77.5819 42.6344 76.9837 41.316 76.7691 39.7305C76.5946 38.4409 76.7453 37.2472 77.2211 36.1495C77.718 35.049 78.4866 34.1269 79.527 33.3833C80.5645 32.6187 81.8231 32.1362 83.303 31.9359L91.4527 30.8332L94.4992 53.348L90.9476 53.8286L89.759 45.0446L86.8416 45.4394C86.7148 45.4566 86.5774 45.4752 86.4294 45.4952C86.3025 45.5123 86.1757 45.5295 86.0488 45.5467L81.9734 55.0429L77.8827 55.5964ZM85.1252 42.5394L89.3428 41.9687L88.3173 34.3897L84.1949 34.9476C83.3915 35.0563 82.6822 35.3029 82.0669 35.6876C81.4487 36.0511 80.9865 36.5334 80.6804 37.1346C80.3954 37.7328 80.3072 38.4337 80.4159 39.237C80.5246 40.0404 80.7867 40.7045 81.2022 41.2296C81.6177 41.7546 82.1534 42.1342 82.8094 42.3683C83.4865 42.5996 84.2585 42.6566 85.1252 42.5394ZM112.006 50.9792L110.774 41.8781C110.474 42.0479 110.083 42.2622 109.602 42.5211C109.117 42.7589 108.535 42.9884 107.854 43.2097C107.195 43.428 106.421 43.5973 105.534 43.7175C102.975 44.0636 100.996 43.7502 99.5938 42.7774C98.1921 41.8046 97.3224 40.0709 96.9849 37.5763L95.9894 30.2193L99.4459 29.7516L100.39 36.728C100.59 38.2079 101.107 39.2466 101.942 39.8441C102.776 40.4416 104.071 40.6217 105.825 40.3842C106.65 40.2727 107.472 40.0646 108.292 39.7599C109.133 39.4523 109.819 39.1119 110.349 38.7387L108.959 28.4644L112.447 27.9924L115.494 50.5072L112.006 50.9792ZM123.994 26.4299L127.356 25.9751L139.155 47.3056L135.413 47.8119L132.206 42.0135L123.517 43.1892L121.999 49.627L118.225 50.1376L123.994 26.4299ZM131.152 39.4759L126.203 30.103L123.795 40.4714L131.152 39.4759ZM157.38 21.9125L160.426 44.4273L156.843 44.9121L155.5 34.9866L144.147 36.5227L145.491 46.4483L141.939 46.9289L138.892 24.414L142.444 23.9335L143.718 33.3516L155.071 31.8155L153.797 22.3973L157.38 21.9125ZM165.537 43.7357L162.491 21.2209L175.904 19.4059L176.329 22.5453L166.467 23.8797L169.089 43.2552L165.537 43.7357ZM197.308 36.2398L197.733 39.3792L182.29 41.4689L179.243 18.9541L194.401 16.903L194.826 20.0424L183.22 21.6129L184.087 28.0185L194.139 26.6583L194.538 29.6074L184.486 30.9676L185.417 37.8489L197.308 36.2398Z" fill="#141A19"/>
</svg>
